<svg width="1589" height="236" viewBox="0 0 1589 236" fill="none" xmlns="http://www.w3.org/2000/svg">
<ellipse cx="105.5" cy="118.5" rx="86.5" ry="96.5" fill="url(#paint0_linear_204_12)"/>
<path fill-rule="evenodd" clip-rule="evenodd" d="M105.162 236V0C105.162 0 105.162 0 105.162 0C47.0825 0 0 52.8304 0 118C0 183.17 47.0825 236 105.162 236C105.162 236 105.162 236 105.162 236Z" fill="url(#paint1_radial_204_12)"/>
<path d="M291.5 164.053V47.8724H306.887V164.053H291.5ZM256 58.2738V45.3649H342.387V58.2738H256Z" fill="white"/>
<path d="M421.22 164.053V107.681C421.22 102.789 420.54 98.5794 419.18 95.0503C417.883 91.5213 415.72 88.7971 412.692 86.8778C409.726 84.8965 405.648 83.9059 400.457 83.9059C395.699 83.9059 391.59 84.8037 388.129 86.5992C384.669 88.3946 381.857 90.8402 379.695 93.9359C377.594 96.9696 376.111 100.437 375.245 104.337L371.909 93.6573H375.802C376.728 89.571 378.428 85.8562 380.9 82.5129C383.371 79.1077 386.677 76.4144 390.817 74.4332C395.019 72.3901 400.117 71.3685 406.111 71.3685C413.279 71.3685 419.057 72.7306 423.444 75.4548C427.893 78.1789 431.137 82.1105 433.177 87.2493C435.216 92.3261 436.235 98.5794 436.235 106.009V164.053H421.22ZM360.693 164.053V41H375.616V70.5326L375.153 96.5362L375.709 97.7436V164.053H360.693Z" fill="white"/>
<path d="M497.541 166.096C483.761 166.096 473.38 162.722 466.397 155.973C459.415 149.224 455.923 139.566 455.923 126.998V110.838C455.923 98.0841 459.167 88.2708 465.656 81.3984C472.144 74.4641 481.629 70.997 494.111 70.997C502.515 70.997 509.529 72.5758 515.152 75.7334C520.775 78.829 525.008 83.2558 527.851 89.0138C530.693 94.7717 532.114 101.644 532.114 109.631V112.974C532.114 114.955 532.022 116.937 531.836 118.918C531.713 120.899 531.527 122.849 531.28 124.769H517.469C517.593 121.797 517.655 118.98 517.655 116.318C517.716 113.655 517.747 111.21 517.747 108.981C517.747 103.471 516.851 98.827 515.059 95.0503C513.329 91.2117 510.703 88.3018 507.181 86.3206C503.72 84.2774 499.364 83.2558 494.111 83.2558C486.325 83.2558 480.486 85.5157 476.593 90.0354C472.7 94.555 470.754 101.025 470.754 109.445V118.082L470.846 119.939V128.576C470.846 132.353 471.402 135.758 472.515 138.792C473.627 141.826 475.357 144.457 477.705 146.686C480.115 148.853 483.143 150.525 486.789 151.701C490.497 152.815 494.884 153.373 499.951 153.373C505.821 153.373 511.29 152.599 516.357 151.051C521.424 149.503 526.182 147.398 530.631 144.736L529.241 157.738C525.224 160.276 520.559 162.319 515.245 163.867C509.931 165.353 504.029 166.096 497.541 166.096ZM463.802 124.769V113.439H528.129V124.769H463.802Z" fill="white"/>
<path d="M602.509 164.053H587.123V45.3649H602.509V164.053Z" fill="white"/>
<path d="M741.976 164.053V107.309C741.976 102.542 741.358 98.4246 740.122 94.9575C738.948 91.4284 736.97 88.7042 734.19 86.7849C731.471 84.8656 727.794 83.9059 723.16 83.9059C718.772 83.9059 714.972 84.8037 711.759 86.5992C708.545 88.3946 705.95 90.8093 703.973 93.843C701.995 96.8149 700.605 100.22 699.802 104.059L697.484 93.3787H699.338C700.327 89.4781 701.995 85.8562 704.343 82.5129C706.692 79.1696 709.874 76.4763 713.891 74.4332C717.907 72.3901 722.881 71.3685 728.814 71.3685C735.549 71.3685 740.956 72.6996 745.034 75.3619C749.174 78.0242 752.202 81.9247 754.118 87.0635C756.034 92.1404 756.991 98.3317 756.991 105.638V164.053H741.976ZM628.987 164.053V73.4116H644.002L643.354 95.1432L644.002 96.0719V164.053H628.987ZM685.527 164.053V107.309C685.527 102.542 684.91 98.4246 683.674 94.9575C682.5 91.4284 680.553 88.7042 677.834 86.7849C675.115 84.8656 671.439 83.9059 666.804 83.9059C662.355 83.9059 658.524 84.8037 655.311 86.5992C652.097 88.3946 649.502 90.8402 647.525 93.9359C645.547 96.9696 644.157 100.437 643.354 104.337L640.573 93.6573H643.91C644.837 89.571 646.443 85.8562 648.73 82.5129C651.016 79.1077 654.106 76.4144 657.999 74.4332C661.953 72.3901 666.742 71.3685 672.365 71.3685C680.708 71.3685 687.041 73.5355 691.367 77.8694C695.754 82.2033 698.504 88.5185 699.616 96.8149C699.925 98.0531 700.142 99.4152 700.265 100.901C700.389 102.325 700.451 103.749 700.451 105.173V164.053H685.527Z" fill="white"/>
<path d="M824.916 166.003C819.354 166.003 814.534 165.074 810.456 163.217C806.378 161.36 803.072 158.697 800.538 155.23C798.005 151.763 796.305 147.739 795.44 143.157H790.528L794.884 129.041C795.131 134.489 796.336 139.04 798.499 142.693C800.723 146.284 803.72 148.977 807.49 150.772C811.259 152.568 815.523 153.466 820.281 153.466C827.882 153.466 833.69 151.237 837.707 146.779C841.785 142.321 843.824 135.789 843.824 127.183V109.817C843.824 101.273 841.816 94.7717 837.799 90.314C833.783 85.8562 827.943 83.6273 820.281 83.6273C815.708 83.6273 811.661 84.5251 808.139 86.3206C804.616 88.116 801.681 90.5616 799.333 93.6573C797.047 96.753 795.471 100.282 794.606 104.244L790.898 93.7502H795.255C796.243 89.602 797.912 85.8562 800.26 82.5129C802.67 79.1077 805.945 76.4144 810.085 74.4332C814.287 72.3901 819.447 71.3685 825.564 71.3685C836.44 71.3685 844.72 74.7737 850.405 81.5842C856.09 88.3327 858.933 98.146 858.933 111.024V126.069C858.933 139.071 856.059 148.977 850.313 155.787C844.628 162.598 836.162 166.003 824.916 166.003ZM780.332 196V73.4116H795.348L794.699 95.2361L794.884 99.8796V138.049L794.791 141.114L795.255 166.56V196H780.332Z" fill="white"/>
<path d="M915.865 166.374C902.888 166.374 893.032 162.876 886.296 155.88C879.623 148.822 876.286 138.699 876.286 125.512V111.674C876.286 98.5484 879.654 88.4875 886.389 81.4913C893.125 74.4951 902.95 70.997 915.865 70.997C928.841 70.997 938.666 74.4951 945.34 81.4913C952.075 88.4875 955.443 98.5484 955.443 111.674V125.512C955.443 138.699 952.075 148.822 945.34 155.88C938.666 162.876 928.841 166.374 915.865 166.374ZM915.865 154.116C923.898 154.116 929.984 151.732 934.124 146.965C938.326 142.197 940.427 135.325 940.427 126.348V110.838C940.427 101.923 938.326 95.1122 934.124 90.4068C929.984 85.6395 923.898 83.2558 915.865 83.2558C907.893 83.2558 901.807 85.6395 897.605 90.4068C893.403 95.1122 891.302 101.923 891.302 110.838V126.348C891.302 135.325 893.403 142.197 897.605 146.965C901.807 151.732 907.893 154.116 915.865 154.116Z" fill="white"/>
<path d="M1004.48 166.096C997.19 166.096 990.825 165.322 985.388 163.774C979.95 162.164 975.439 160.431 971.855 158.573L970.465 144.643C974.975 146.996 979.919 149.039 985.295 150.772C990.733 152.506 996.881 153.373 1003.74 153.373C1010.72 153.373 1015.98 152.258 1019.5 150.029C1023.02 147.8 1024.78 144.488 1024.78 140.092V139.071C1024.78 136.223 1024.1 133.87 1022.74 132.013C1021.44 130.155 1019.06 128.514 1015.6 127.09C1012.14 125.666 1007.23 124.242 1000.87 122.818C993.266 121.147 987.272 119.197 982.885 116.968C978.498 114.677 975.346 111.86 973.431 108.516C971.577 105.173 970.65 101.087 970.65 96.2576V95.4218C970.65 87.4969 973.4 81.4913 978.899 77.405C984.399 73.3187 992.679 71.2756 1003.74 71.2756C1010.85 71.2756 1016.99 72.0805 1022.19 73.6902C1027.44 75.3 1031.73 77.0955 1035.07 79.0767L1036.46 91.7999C1032.44 89.4472 1027.84 87.4969 1022.65 85.9491C1017.46 84.4012 1011.62 83.6273 1005.13 83.6273C1000.43 83.6273 996.634 84.1226 993.73 85.1132C990.825 86.0419 988.725 87.404 987.427 89.1995C986.129 90.9331 985.48 93.0381 985.48 95.5147V96.2576C985.48 98.9818 986.129 101.304 987.427 103.223C988.725 105.08 991.042 106.721 994.379 108.145C997.777 109.507 1002.47 110.838 1008.47 112.138C1016.19 113.686 1022.31 115.544 1026.82 117.711C1031.39 119.878 1034.67 122.633 1036.65 125.976C1038.62 129.257 1039.61 133.499 1039.61 138.699V140.278C1039.61 148.822 1036.65 155.261 1030.71 159.595C1024.78 163.929 1016.04 166.096 1004.48 166.096Z" fill="white"/>
<path d="M1090.4 165.91C1083.42 165.91 1077.8 164.858 1073.53 162.753C1069.27 160.648 1066.18 157.459 1064.26 153.187C1062.35 148.915 1061.39 143.59 1061.39 137.213V80.0054H1076.22V135.449C1076.22 141.392 1077.58 145.788 1080.3 148.636C1083.02 151.422 1087.59 152.815 1094.02 152.815C1097.66 152.815 1101.15 152.413 1104.49 151.608C1107.89 150.803 1111.07 149.658 1114.04 148.172L1112.65 161.081C1109.74 162.567 1106.34 163.743 1102.45 164.61C1098.56 165.477 1094.54 165.91 1090.4 165.91ZM1046.56 86.7849V74.7118H1113.11L1111.72 86.7849H1046.56ZM1061.48 76.1977L1061.39 50.7514L1076.5 48.8011L1075.85 76.1977H1061.48Z" fill="white"/>
<path d="M1164.24 166.374C1151.27 166.374 1141.41 162.876 1134.68 155.88C1128 148.822 1124.67 138.699 1124.67 125.512V111.674C1124.67 98.5484 1128.03 88.4875 1134.77 81.4913C1141.5 74.4951 1151.33 70.997 1164.24 70.997C1177.22 70.997 1187.05 74.4951 1193.72 81.4913C1200.46 88.4875 1203.82 98.5484 1203.82 111.674V125.512C1203.82 138.699 1200.46 148.822 1193.72 155.88C1187.05 162.876 1177.22 166.374 1164.24 166.374ZM1164.24 154.116C1172.28 154.116 1178.36 151.732 1182.5 146.965C1186.71 142.197 1188.81 135.325 1188.81 126.348V110.838C1188.81 101.923 1186.71 95.1122 1182.5 90.4068C1178.36 85.6395 1172.28 83.2558 1164.24 83.2558C1156.27 83.2558 1150.19 85.6395 1145.98 90.4068C1141.78 95.1122 1139.68 101.923 1139.68 110.838V126.348C1139.68 135.325 1141.78 142.197 1145.98 146.965C1150.19 151.732 1156.27 154.116 1164.24 154.116Z" fill="white"/>
<path d="M1238.87 108.609L1235.44 97.0006L1239.14 96.8149C1241.12 89.1376 1244.52 83.1011 1249.34 78.7052C1254.16 74.2475 1260.55 72.0186 1268.53 72.0186C1270.5 72.0186 1272.26 72.1734 1273.81 72.4829C1275.42 72.7925 1276.84 73.164 1278.07 73.5974L1279 88.178C1277.46 87.6826 1275.73 87.2802 1273.81 86.9706C1271.96 86.6611 1269.89 86.5063 1267.6 86.5063C1260.8 86.5063 1254.87 88.3946 1249.8 92.1714C1244.8 95.9481 1241.15 101.427 1238.87 108.609ZM1224.59 164.053V73.4116H1239.24L1238.49 100.158L1239.61 101.273V164.053H1224.59Z" fill="white"/>
<path d="M1362.22 144.2V120.642H1389.95C1395.93 120.642 1400.24 119.307 1402.86 116.638C1405.55 113.906 1406.89 109.84 1406.89 104.44V98.6667C1406.89 93.204 1405.58 89.138 1402.95 86.4687C1400.33 83.7994 1396.03 82.4648 1390.05 82.4648H1362.13V59H1392.15C1407.04 59 1417.93 62.3521 1424.83 69.0563C1431.78 75.7606 1435.26 85.3513 1435.26 97.8286V105.371C1435.26 117.91 1431.78 127.532 1424.83 134.236C1417.93 140.878 1407.07 144.2 1392.24 144.2H1362.22ZM1343 178V59H1371.01V127.253L1371.19 140.475V178H1343Z" fill="white"/>
<path d="M1462.05 178L1465.71 59H1505.62L1524.93 129.953H1526.12L1545.43 59H1585.34L1589 178H1561.27L1560.44 138.985L1559.62 91.4969H1558.25L1538.2 164.033H1512.76L1492.71 91.4969H1491.25L1490.51 139.078L1489.78 178H1462.05Z" fill="white"/>
<defs>
<linearGradient id="paint0_linear_204_12" x1="105" y1="118.975" x2="192" y2="118.975" gradientUnits="userSpaceOnUse">
<stop stop-color="#E4E4E4"/>
<stop offset="1" stop-color="white"/>
</linearGradient>
<radialGradient id="paint1_radial_204_12" cx="0" cy="0" r="1" gradientUnits="userSpaceOnUse" gradientTransform="translate(105 5.23878) rotate(113.832) scale(256.157 112.416)">
<stop stop-color="#FFEF99"/>
<stop offset="1" stop-color="#FFAE63"/>
</radialGradient>
</defs>
</svg>
